<?xml version="1.0" standalone="no"?>
<!DOCTYPE svg PUBLIC "-//W3C//DTD SVG 20010904//EN"
 "http://www.w3.org/TR/2001/REC-SVG-20010904/DTD/svg10.dtd">
<svg version="1.0" xmlns="http://www.w3.org/2000/svg"
 width="1300.000000pt" height="1300.000000pt" viewBox="0 0 1300.000000 1300.000000"
 preserveAspectRatio="xMidYMid meet">
<metadata>
Created by potrace 1.14, written by Peter Selinger 2001-2017
</metadata>
<g transform="translate(0.000000,1300.000000) scale(0.100000,-0.100000)"
fill="#000000" stroke="none">
<path d="M0 6500 l0 -6500 6500 0 6500 0 0 6500 0 6500 -6500 0 -6500 0 0
-6500z m10009 2158 l102 -333 -360 -909 -360 -908 55 -110 55 -109 185 3 186
3 76 -143 c46 -85 79 -137 83 -130 4 7 102 281 218 608 117 327 215 598 219
601 4 4 176 63 384 132 l376 125 400 -177 401 -176 66 -267 67 -268 -173 -622
-173 -623 -186 -122 -187 -123 -519 0 -519 0 -170 284 c-94 156 -173 281 -177
278 -3 -4 -47 -135 -97 -291 -51 -157 -93 -285 -94 -285 -1 -1 -253 1 -559 4
l-556 5 -190 221 -190 222 -57 538 -57 539 260 745 c143 410 326 932 405 1160
80 228 148 423 152 432 6 16 33 18 304 21 163 1 348 3 412 5 l116 2 102 -332z
m-2854 20 c34 -73 106 -221 158 -330 l95 -196 -100 -189 c-54 -103 -133 -253
-175 -332 l-76 -144 364 6 364 6 60 -68 c33 -37 153 -171 266 -298 l206 -230
-173 -514 c-96 -283 -235 -695 -310 -916 l-137 -403 -402 0 -402 0 -144 227
c-79 124 -143 231 -141 237 2 6 68 191 148 410 80 219 141 402 137 406 -4 4
-58 10 -120 12 l-112 4 -35 -90 c-349 -904 -456 -1179 -458 -1181 -2 -2 -199
-6 -439 -10 l-436 -7 -151 255 c-84 140 -155 262 -158 271 -3 8 137 315 327
713 529 1112 644 1355 921 1935 l261 548 156 3 c86 1 220 4 299 5 l143 2 64
-132z m-4085 -1320 c19 -79 37 -146 40 -151 3 -4 29 52 57 125 l51 133 244 7
c133 4 571 7 972 5 l729 -2 164 -280 c90 -154 169 -289 174 -300 9 -18 -65
-161 -466 -905 -262 -487 -480 -888 -483 -891 -4 -4 -245 15 -537 42 -291 26
-543 48 -560 48 l-30 1 -215 -612 c-118 -336 -219 -616 -225 -623 -8 -10 -89
-10 -409 1 -219 7 -400 15 -402 16 -2 2 -45 80 -97 173 l-94 168 17 31 c10 17
248 463 530 991 282 528 514 961 514 962 1 1 222 -9 491 -22 270 -14 506 -25
526 -25 34 0 37 2 132 153 l98 152 -153 6 c-174 8 -424 16 -743 26 l-220 6
-71 68 -70 69 -30 -87 -29 -86 -292 7 -292 6 -230 -699 -231 -700 -43 -5 c-23
-3 -229 -12 -457 -21 -380 -15 -415 -15 -426 -1 -6 9 -62 104 -124 211 l-112
195 477 947 c262 522 480 952 484 956 5 4 174 13 377 18 306 9 645 19 885 27
l45 2 34 -142z"/>
<path d="M11034 6652 l-90 -36 -69 -223 c-37 -123 -66 -225 -64 -227 2 -2 34
-21 71 -41 l68 -37 85 52 c46 29 88 58 93 64 5 6 35 88 67 182 l59 170 -53 65
c-30 35 -59 65 -65 65 -6 1 -52 -14 -102 -34z"/>
</g>
</svg>
