<?xml version="1.0" standalone="no"?>
<!DOCTYPE svg PUBLIC "-//W3C//DTD SVG 20010904//EN"
 "http://www.w3.org/TR/2001/REC-SVG-20010904/DTD/svg10.dtd">
<svg version="1.0" xmlns="http://www.w3.org/2000/svg"
 width="600.000000pt" height="600.000000pt" viewBox="0 0 600.000000 600.000000"
 preserveAspectRatio="xMidYMid meet">
<metadata>
Created by potrace 1.14, written by Peter Selinger 2001-2017
</metadata>
<g transform="translate(0.000000,600.000000) scale(0.100000,-0.100000)"
fill="#000000" stroke="none">
<path d="M4244 4153 l-61 -4 -17 -57 c-10 -31 -95 -275 -188 -542 l-170 -485
22 -225 c12 -124 25 -239 30 -257 8 -33 160 -217 187 -227 8 -3 124 -6 258 -6
182 0 245 3 253 13 5 6 27 65 47 130 20 65 40 116 43 112 4 -3 39 -59 77 -123
l70 -117 248 -3 248 -2 77 52 c42 28 80 54 84 57 4 3 43 137 87 296 l80 290
-32 124 -32 124 -175 78 c-96 43 -186 78 -200 78 -14 0 -99 -26 -190 -57
l-165 -57 -95 -267 c-53 -147 -98 -270 -102 -273 -4 -4 -21 21 -38 55 l-32 63
-84 -7 -84 -6 -25 50 -25 50 116 292 c63 161 138 350 165 419 l50 125 -41 140
c-23 76 -46 147 -52 157 -8 15 -24 17 -141 15 -73 -1 -159 -3 -193 -5z m925
-1094 l23 -30 -28 -79 c-23 -68 -33 -83 -67 -106 -39 -26 -41 -26 -74 -10 -21
10 -33 22 -30 30 3 7 17 54 32 104 28 90 28 91 69 106 53 19 47 20 75 -15z"/>
<path d="M2993 4058 c-11 -18 -50 -101 -253 -528 -98 -206 -237 -496 -310
-644 -72 -149 -132 -277 -133 -285 0 -9 30 -69 69 -133 l69 -118 209 3 209 2
110 293 111 292 47 0 c26 0 50 -4 53 -8 3 -5 -24 -89 -60 -187 -35 -97 -64
-182 -64 -188 0 -6 30 -57 66 -114 l66 -103 186 2 187 3 42 120 c23 66 88 256
144 422 l101 302 -27 33 c-15 18 -70 82 -123 141 l-96 108 -163 -7 c-114 -5
-163 -4 -163 4 0 6 34 76 75 155 l75 144 -72 152 -71 151 -138 0 c-99 0 -140
-3 -146 -12z"/>
<path d="M1075 3460 c-154 -3 -281 -7 -282 -8 -9 -9 -433 -877 -433 -887 0 -7
24 -54 52 -104 l53 -92 190 7 c104 4 201 10 215 14 23 6 34 33 130 323 l105
316 133 1 133 0 15 35 c8 19 17 35 21 35 4 0 19 -12 35 -27 l27 -26 248 -10
c136 -6 249 -11 251 -12 2 -2 -16 -33 -39 -70 l-43 -67 -45 6 c-25 3 -134 9
-242 12 l-195 7 -151 -279 c-83 -153 -194 -360 -246 -459 l-96 -180 40 -75
c22 -41 44 -78 47 -81 4 -4 91 -9 194 -12 l187 -6 30 77 c16 42 61 169 101
282 39 113 74 208 78 211 4 3 120 -5 257 -17 195 -18 253 -21 262 -11 23 24
433 795 433 815 0 7 -36 73 -80 147 l-81 135 -437 0 c-240 0 -442 -4 -449 -8
-6 -4 -19 -27 -29 -52 -26 -68 -31 -67 -45 2 -13 57 -17 63 -39 64 -14 0 -151
-3 -305 -6z"/>
</g>
</svg>
