<?xml version="1.0" standalone="no"?>
<!DOCTYPE svg PUBLIC "-//W3C//DTD SVG 20010904//EN"
 "http://www.w3.org/TR/2001/REC-SVG-20010904/DTD/svg10.dtd">
<svg version="1.0" xmlns="http://www.w3.org/2000/svg"
 width="1080.000000pt" height="1080.000000pt" viewBox="0 0 1080.000000 1080.000000"
 preserveAspectRatio="xMidYMid meet">
<metadata>
Created by potrace 1.14, written by Peter Selinger 2001-2017
</metadata>
<g transform="translate(0.000000,1080.000000) scale(0.100000,-0.100000)"
fill="#000000" stroke="none">
<path d="M8226 7783 c-1 -1 -85 -3 -187 -4 l-186 -2 -90 -276 c-50 -152 -162
-492 -248 -756 -87 -264 -175 -534 -197 -600 -22 -66 -41 -127 -43 -135 -2 -8
-10 -33 -18 -55 -9 -22 -50 -144 -91 -272 l-75 -232 24 -248 c14 -136 28 -273
30 -303 3 -30 8 -74 10 -97 3 -23 8 -68 10 -100 5 -56 8 -88 20 -203 11 -103
12 -110 22 -122 91 -118 340 -421 348 -424 5 -2 238 -5 516 -7 l507 -4 37 121
c20 67 50 166 67 221 17 55 40 133 53 174 l23 74 26 -41 c14 -23 26 -44 26
-47 0 -2 13 -26 28 -52 16 -27 77 -134 135 -239 l107 -191 483 -1 484 -2 169
120 169 121 41 157 c38 144 131 499 205 782 17 63 32 122 34 130 2 8 12 49 22
90 17 67 18 81 5 130 -7 30 -17 74 -22 96 -5 23 -18 77 -29 120 -11 44 -22 93
-26 111 -3 18 -9 43 -15 57 -5 15 -8 26 -5 26 2 0 -1 13 -6 29 -7 21 -23 35
-57 49 -26 11 -103 47 -172 80 -309 147 -370 176 -441 209 l-77 35 -73 -27
c-41 -15 -164 -58 -274 -97 -110 -38 -233 -81 -272 -95 -40 -14 -77 -31 -81
-37 -5 -6 -99 -280 -208 -608 -110 -329 -202 -598 -205 -598 -4 0 -39 65 -79
145 l-71 146 -132 -7 c-73 -3 -149 -7 -170 -8 -37 -2 -38 -1 -69 66 -17 38
-41 87 -52 111 l-22 42 32 90 c18 50 87 236 154 415 67 179 128 343 135 366 8
22 49 130 90 240 42 109 77 204 79 209 2 6 6 17 9 25 3 8 15 42 26 75 12 33
25 69 30 80 5 11 28 72 51 135 23 63 46 127 52 142 8 21 1 57 -37 190 -49 172
-86 300 -112 383 -8 28 -17 58 -19 69 -2 10 -6 21 -10 25 -5 5 -382 9 -388 4z
m1593 -2327 c28 -35 51 -67 51 -71 0 -5 -25 -86 -56 -182 l-57 -174 -73 -50
c-41 -27 -81 -52 -89 -55 -11 -4 -109 45 -144 72 -2 2 25 104 60 227 l64 223
85 37 c47 20 90 36 97 37 6 0 34 -29 62 -64z"/>
<path d="M5825 7610 c-66 -3 -177 -5 -246 -5 l-127 0 -78 -175 c-42 -96 -90
-202 -105 -235 -26 -57 -101 -226 -139 -310 -69 -156 -97 -219 -126 -283 -19
-41 -34 -75 -34 -77 0 -2 -13 -32 -29 -67 -16 -35 -98 -216 -181 -403 -84
-187 -162 -360 -173 -385 -11 -25 -21 -47 -22 -50 -4 -12 -26 -61 -60 -135
-20 -44 -43 -93 -50 -110 -16 -39 -37 -85 -75 -170 -17 -38 -38 -85 -47 -104
-8 -20 -28 -64 -44 -99 -16 -35 -29 -65 -29 -67 0 -3 -14 -35 -31 -72 -17 -38
-51 -113 -76 -168 -25 -55 -58 -128 -74 -163 -16 -35 -29 -69 -29 -76 0 -11
70 -140 260 -479 l27 -49 174 2 c165 2 458 7 580 9 l55 1 98 273 c54 149 120
331 146 402 40 109 167 460 202 558 l11 29 91 -6 c50 -3 103 -5 117 -5 l27 -1
-75 -217 c-41 -120 -88 -256 -104 -303 -16 -47 -31 -92 -33 -100 -2 -8 -18
-54 -35 -102 -17 -47 -31 -92 -31 -100 0 -7 60 -112 133 -233 l133 -220 369 0
368 0 49 155 c27 85 81 252 118 370 94 294 207 649 235 740 13 41 40 127 60
190 44 137 94 295 105 331 8 27 11 24 -419 535 l-68 81 -59 -3 c-111 -6 -614
-12 -614 -8 0 2 72 149 160 326 88 177 160 326 160 332 0 6 -25 67 -57 136
-31 69 -69 154 -85 190 -17 36 -38 83 -48 105 -68 147 -90 197 -90 205 0 12
-55 15 -185 10z"/>
<path d="M2197 6314 c-1 -1 -105 -5 -232 -8 -126 -4 -275 -9 -330 -11 -55 -2
-199 -7 -320 -10 -121 -4 -233 -8 -250 -9 -33 -1 -39 -11 -156 -261 -31 -66
-73 -156 -94 -200 -21 -44 -75 -159 -120 -255 -45 -96 -105 -222 -133 -280
-57 -120 -116 -246 -177 -375 -23 -49 -64 -135 -90 -190 -26 -55 -60 -129 -77
-164 -16 -35 -40 -85 -53 -111 -27 -53 -32 -33 45 -175 18 -33 58 -109 90
-170 l59 -110 113 1 c62 0 190 4 283 8 238 11 290 13 373 16 39 2 76 8 80 14
4 6 18 45 31 86 12 41 36 118 53 170 17 52 31 100 32 105 2 6 13 44 26 85 14
41 25 77 25 80 1 3 18 57 38 120 87 277 206 658 214 690 l9 35 274 0 273 0 24
70 c12 39 25 76 28 84 4 10 26 -7 69 -54 l64 -68 78 -3 c44 -1 151 -5 239 -8
344 -13 473 -18 540 -21 39 -2 96 -4 128 -4 l58 -1 -18 -32 c-10 -18 -21 -34
-25 -36 -5 -2 -8 -7 -8 -12 0 -6 -123 -215 -134 -227 -5 -6 -56 -6 -141 1 -49
3 -142 8 -206 11 -64 3 -145 7 -180 10 -35 2 -127 7 -204 10 -77 3 -161 8
-187 10 -42 4 -49 2 -66 -23 -14 -21 -472 -930 -915 -1817 l-60 -120 83 -160
c45 -88 86 -164 91 -169 4 -5 43 -10 86 -12 43 -1 175 -5 293 -9 118 -3 247
-8 286 -10 39 -2 75 0 81 3 8 5 168 468 186 537 2 6 54 164 117 353 l113 343
46 -5 c25 -3 75 -8 111 -11 36 -3 81 -8 100 -10 19 -2 64 -7 100 -10 36 -3 83
-7 105 -9 22 -2 72 -7 110 -11 39 -3 90 -8 115 -11 25 -2 65 -6 90 -9 25 -2
68 -7 95 -9 28 -3 77 -8 110 -11 l60 -6 177 348 c531 1049 708 1403 708 1414
0 12 -46 99 -226 424 -18 33 -46 85 -62 115 l-30 55 -613 -2 c-338 -1 -743 -2
-900 -2 l-285 -1 -16 -47 c-9 -27 -32 -91 -51 -143 l-35 -95 -12 45 c-6 25
-13 52 -15 60 -2 8 -6 26 -9 40 -2 14 -11 57 -20 95 -14 59 -20 71 -37 71 -11
0 -21 -1 -22 -2z"/>
</g>
</svg>
